<svg xmlns="http://www.w3.org/2000/svg" viewBox="0 0 720 380" width="720" height="380" role="img" class="trivia-minimap-svg">
<rect width="720" height="380" class="mm-sea"/>
<path class="mm-land" d="M0 0L48.5 0L48.8 2.4L68.8 29.1L71.9 34.9L70.5 39L63.1 39L47.3 30.3L46.3 22.4L32.8 10.9L27.7 13.5L22 11.6L15.1 18L0 19.6ZM720 0L720 380L225 380L222.8 374.5L211.1 370.6L210.6 354.3L228.6 342.1L229.5 335.9L203.9 342.9L190.2 337.5L180.8 340.6L160.2 340.3L140.6 348.1L116.5 365.7L106.6 356.1L125.2 335.8L125 322.7L118.3 320.3L117.7 317.7L122.4 315.9L118.5 307.3L106.3 306.6L108.1 278.2L120.1 267.5L129.3 267L124.1 257.7L123.3 243.9L128.3 239L132.5 226.5L134.6 224.1L142.5 229.5L154.7 219L160.8 210.6L159.8 200.1L162.8 196.6L163.4 188.9L179 194.3L196 166.7L206.2 169.7L213.5 163.1L207.5 152.6L203.6 151.4L200.3 138.8L207 134.8L209.3 139.6L214.9 131.8L209.1 123.7L215.5 110.1L219.5 86.1L217.3 77L218.9 69.1L215.7 61.9L217.8 42.8L213.5 38.4L211.9 29.9L215.1 13.4L212 8.2L212.2 0ZM0 380L0 19.6L15.1 18L22 11.6L27.7 13.5L32.8 10.9L46.3 22.4L47.3 30.3L63.1 39L70.5 39L71.9 34.9L68.8 29.1L48.8 2.4L48.5 0L212.2 0L212 8.2L215.1 13.4L211.9 29.9L213.5 38.4L217.8 42.8L215.7 61.9L218.9 69.1L217.3 77L219.5 86.1L215.5 110.1L209.1 123.7L214.9 131.8L209.3 139.6L207 134.8L200.3 138.8L203.6 151.4L207.5 152.6L213.5 163.1L206.2 169.7L196 166.7L179 194.3L163.4 188.9L162.8 196.6L159.8 200.1L160.8 210.6L154.7 219L142.5 229.5L134.6 224.1L128.3 239L123.3 243.9L124.1 257.7L129.3 267L120.1 267.5L108.1 278.2L106.3 306.6L118.5 307.3L122.4 315.9L117.7 317.7L118.3 320.3L125 322.7L125.2 335.8L106.6 356.1L116.5 365.7L140.6 348.1L160.2 340.3L180.8 340.6L190.2 337.5L203.9 342.9L229.5 335.9L228.6 342.1L210.6 354.3L211.1 370.6L222.8 374.5L225 380Z"/>
<g class="mm-pin"><circle cx="360" cy="190" r="17" class="mm-halo"/><circle cx="360" cy="190" r="5.5" class="mm-dot"/></g>
</svg>