<svg xmlns="http://www.w3.org/2000/svg" viewBox="0 0 720 380" width="720" height="380" role="img" class="trivia-minimap-svg">
<rect width="720" height="380" class="mm-sea"/>
<path class="mm-land" d="M709.9 0L720 12.9L720 23.9L719.2 26L720 29.6L720 37.2L719.2 46.5L713.1 49.6L709.9 48.9L704.3 58.3L708.4 65.7L708.3 71.7L706.7 72.5L702.8 71.9L704 65.3L699.2 63.1L690.5 52.6L688.3 52L687.8 46.9L683.9 42.9L691.4 28.9L690 11.9L686.4 7.5L679.7 10L672.2 9.9L670.5 12.5L662.3 0ZM280.1 355.6L279.1 356.5L276.9 355.1L263.2 341.4L252.9 323.3L251.4 313.7L248.1 307.3L250.1 304.7L248.6 300.3L245.4 298.2L245.7 291.2L242.6 283.4L242.9 266.1L233.9 241.9L235.2 236.8L233.3 224.9L234.7 222.3L232.8 213.9L233.4 211.7L233.9 214.5L235.5 212.2L235 203.5L209.8 161.9L204.8 145.8L201.6 142.7L188.2 114.8L178.7 105.2L173.3 92.1L171.5 82.3L172.4 75.6L180 72.6L183.5 74.6L190.9 74.8L198.1 70L204.5 68.1L211.6 69.5L212.6 72.2L223 79.4L324.8 78.5L329.1 84.5L334.7 88.3L354.8 90.5L367.6 89.6L378.3 93.9L386.4 91.5L391.6 93.4L456 80.7L474.6 83.1L479.7 88.2L472.7 88L463.9 94.4L459 92.1L449.1 97.9L442.1 104.6L434.9 93.1L393.6 100.3L382.2 100.8L382.4 189.1L359.5 190L359.6 351.6L350.2 354.5L347.6 359L343.3 360L343.8 363.6L340 365.5L331.5 362.5L318.3 364.1L312.5 360.9L306 360.5L305 358.3L300.9 359L301.3 356.1L299.1 352.9L300.8 350.9L299.6 346.6L296.6 346.7L295.9 343.3L293.5 341.4L289.3 342.9L286.5 347.6L285.8 353.2L280.1 355.6ZM359.6 258.2L368.3 265.3L372.3 274.1L375 276.2L374.5 280.1L379.1 293L373.8 302.2L375.7 312.3L380.7 310L385.5 311.6L397.9 311.6L400.1 310.1L400.5 306.9L406.8 305.4L411.2 298.5L417.9 294.9L421.9 289.3L424.7 276.6L429 272L438.7 271.5L449.3 280.3L455.2 280.2L458.7 283.4L466.2 285.2L484.2 282.4L487.1 280.1L493.7 261.6L493.5 258.1L505.7 255.3L508.6 250.9L515.6 246.1L518.5 232.5L522.2 227.6L531.8 223.6L533.1 220L536.4 220.1L536.9 217.7L540.5 216L540.6 213.7L548.9 204.9L562.8 201.2L565.7 195.5L579.8 193.1L595.2 198.5L606.6 196.9L613.8 197.8L616.9 199.8L622.5 218.5L622.3 225.9L629.7 237.7L632.8 250L633 280.5L630.6 289.3L619.4 283L613 287.4L605.9 299.7L605.8 310.2L607.6 309.3L609.3 315.1L613.5 320.1L622.3 323L632.3 323.2L632.8 310.2L653.4 311.2L645.6 345.2L642.2 350.8L642 354.6L635 361.4L633.5 361.1L633.4 362.3L634.7 361.6L633.3 363.2L627.8 364.6L618.6 375.3L616 380L291.2 380L287.7 369.3L279.7 356.8L284.3 352.6L285.8 353.2L286.5 347.6L289.3 342.9L293.5 341.4L295.9 343.3L296.6 346.7L299.6 346.6L300.8 350.9L299.1 352.9L301.3 356.1L300.9 359L305 358.3L306 360.5L312.5 360.9L318.3 364.1L331.5 362.5L340 365.5L343.8 363.6L343.3 360L347.6 359L350.2 354.5L359.6 351.6L359.6 258.2ZM564.4 364.3L556.5 355.5L545.6 358.9L542.4 363.5L536.3 364.3L527.3 379.2L525.5 380L571.7 380L574.7 375.6L571.9 369L564.4 364.3ZM656.6 0L592.4 21.5L596.9 36.8L578.2 37.4L563.3 44.7L561.5 46.9L561.5 54.7L559.4 58.1L537.9 68.3L532.4 77.9L521.9 90.3L512.5 94.8L501.4 90.3L494.8 93.1L489.3 88.6L481.4 89.3L474.6 83.1L466.6 81L456 80.7L437 84.5L422.9 73.3L413.1 61.5L408 58.4L405.1 48.9L405.1 0ZM405.1 0L405.1 49.4L409 59.7L413.1 61.5L422.9 73.3L437 84.5L391.6 93.4L386.4 91.5L378.3 93.9L367.6 89.6L354.8 90.5L334.7 88.3L329.1 84.5L324.8 78.5L223 79.4L212.6 72.2L211.6 69.5L204.5 68.1L198.1 70L190.9 74.8L183.5 74.6L180 72.6L172.4 74.9L173.9 56.9L171.9 42.1L177.8 36.5L179.2 27.4L181.3 25.9L185.5 8.6L185.4 0.6L185.7 0ZM171.7 60.2L172 62.3L171.2 57.4L171.7 60.2ZM479.7 88.2L479.6 93.1L495.2 115.2L495.4 119.6L500.1 130.1L503.4 131L503.6 132.8L512.8 139.5L523.9 143.5L525.4 153.3L535.2 153.6L534.5 167.3L539.4 173.1L541.8 179L556.1 181.3L565.7 185L565.7 190.5L570.2 191.8L572.8 194.6L565.7 195.5L563.2 200.8L560.6 202.1L548.9 204.9L540.6 213.7L540.5 216L536.9 217.7L536.4 220.1L533.1 220L531.8 223.6L522.2 227.6L518.5 232.5L515.6 246.1L508.6 250.9L505.7 255.3L493.5 258.1L493.7 261.6L487.1 280.1L484.2 282.4L466.2 285.2L458.7 283.4L455.2 280.2L449.3 280.3L438.7 271.5L429 272L424.7 276.6L421.7 289.6L417.9 294.9L411.2 298.5L406.8 305.4L400.5 306.9L400.1 310.1L397.9 311.6L385.5 311.6L380.7 310L375.7 312.3L373.8 302.2L379.1 293L374.5 280.1L375 276.2L372.3 274.1L368.3 265.3L359.6 258.2L359.5 190L382.4 189.1L382.2 100.8L393.6 100.3L434.9 93.1L442.1 104.6L449.1 97.9L459 92.1L464.1 94.3L469.7 89.3L479.7 88.2ZM479.7 88.2L485.5 89.8L489.3 88.6L494.8 93.1L501.4 90.3L512.5 94.8L519.8 92.1L532.4 77.9L537.9 68.3L560.5 57L561.5 46.9L563.3 44.7L578.2 37.4L596.6 36.9L596.7 45.5L607.1 45.5L610.1 47L612.9 45.4L616.2 46.1L619.5 49.4L626.5 50.7L631 55.7L639.7 56.2L648.4 59.7L649.7 62.3L655.1 61.7L651.9 67.7L656.3 77.5L654.4 81.1L656.4 84L654.2 92.5L654.8 99.2L656.8 101.5L652.9 106L653.6 111.7L648.8 113.1L648.6 116L652.5 119.1L650.4 128.3L652 129.2L651.7 133.4L654.5 132.8L656.6 136L656 142L653.2 143.7L648.4 154.2L644 155.9L644.2 164L640.8 168.8L643.2 173.2L616.9 199.8L606.6 196.9L595.2 198.5L582.1 193.2L572.9 194.7L570.2 191.8L565.7 190.5L565.7 185L556.1 181.3L541.8 179L539.4 173.1L534.5 167.3L535.2 153.6L525.4 153.3L523.9 143.5L512.8 139.5L503.6 132.8L503.4 131L500.1 130.1L495.4 119.6L495.2 115.2L479.6 93.1L479.7 88.2ZM635.7 311L634.7 289.9L631.9 288.6L630.9 284.9L633 280.5L632.8 250L629.7 237.7L622.3 225.9L622.5 218.5L616.7 200.2L643.2 173.2L640.8 168.8L644.2 164L644 155.9L648.4 154.2L653.2 143.7L656 142L656.6 136L654.5 132.8L651.7 133.4L652 129.2L650.4 128.3L652.5 119.1L648.6 116L648.8 113.1L653.6 111.7L652.9 106L656.8 101.5L654.8 99.2L654.2 92.5L656.4 84L654.4 81.1L656.3 77.5L651.9 67.7L655.1 61.7L649.7 62.3L648.4 59.7L639.7 56.2L631 55.7L626.5 50.7L619.5 49.4L616.2 46.1L612.9 45.4L610.1 47L607.1 45.5L596.7 45.5L596.5 33.2L592.4 21.5L656.6 0L661.4 0L670.5 12.5L672.2 9.9L679.7 10L686.4 7.5L690.4 12.7L691.5 28.3L683.9 42.9L687.8 46.9L688.3 52L690.5 52.6L699.2 63.1L704 65.3L702.8 71.9L708 72.3L707.7 62.1L704.3 58.3L709.9 48.9L713.1 49.6L719.2 46.5L720 37.2L720 29.6L719.2 26L720 23.9L720 12.9L709.9 0L720 0L720 116.8L704.2 134.1L698.6 137.9L691.2 131.1L696.3 136.8L694.7 138.4L696 138.9L696.2 144.9L693.5 144.9L695.5 146.7L693.1 150.4L694.9 152.6L693.8 154.4L695.4 154L698.9 157.2L698.4 158.6L701.2 159L702.2 164L704.1 164.7L701.7 168.2L703 173.4L704.2 169.9L704.1 174.7L707.5 181.3L708.4 200.2L710.5 201.7L711.4 192.9L712.7 192.6L713.1 197.6L713.9 194.4L712.5 207L713.6 213.3L715.1 212.5L712.2 219L710.4 233L709.1 231.4L708.9 238.6L710 235.6L711.9 236.5L712.2 234L713.3 234.5L712.6 242L703.7 254.4L662.1 271.7L663.1 270.8L652.9 278.1L648.7 286.8L643.9 289.3L645.5 289.1L648.6 294.4L652.2 297L654.8 291.7L653.4 311.2L635.7 311ZM712 178.9L711.2 184.7L712 178.9ZM631.9 288.6L634.7 289.9L634 296.9L635.7 304.4L635.7 311L632.8 310.2L632.3 323.2L622.3 323L613.5 320.1L609.3 315.1L607.6 309.3L605.8 310.2L605.4 301.6L613 287.4L620 283.2L629.3 289.2L631.9 288.6ZM564.4 364.3L571.9 369L574.7 375.6L571.7 380L525.5 380L527.3 379.2L536.3 364.3L542.4 363.5L545.6 358.9L556.5 355.5L564.4 364.3Z"/>
<g class="mm-pin"><circle cx="360" cy="190" r="17" class="mm-halo"/><circle cx="360" cy="190" r="5.5" class="mm-dot"/></g>
</svg>