<svg xmlns="http://www.w3.org/2000/svg" viewBox="0 0 720 380" width="720" height="380" role="img" class="trivia-minimap-svg">
<rect width="720" height="380" class="mm-sea"/>
<path class="mm-land" d="M507.5 28.7L503.6 28.7L500.6 35.4L502.7 49.1L508.9 53.5L518.2 67.4L516.8 81L512.2 82.2L509.4 86.9L511.4 90.6L510.6 94L508.7 93.7L509.3 90.4L501.4 83.8L499.2 79.2L503 72.2L502.2 63.7L500.4 61.5L492.5 64L488.3 57.7L486.7 56.1L485.2 57.6L481.3 52.2L485.1 47.6L485.4 40.8L491.2 37.8L488 35.2L487.8 26.8L489.6 23.9L487.8 20.7L492.8 17.1L488.6 11.2L489.1 8.5L487.1 5.8L485 6.1L484.4 3.4L495.5 7.2L496.7 4.4L500.2 7.2L502.6 10.9L503.5 23.2L507.5 28.7ZM484.3 3.6L474.2 0L559.8 0L560.7 1.1L559.9 4.1L562.5 8.4L561.3 10.9L569.7 13.9L569.8 15.9L556.1 24L552.2 24L547.6 26.8L541.3 25.3L540 28.2L536 30.4L531 28.6L521.6 30.2L517.3 26.8L514.5 29L507.5 28.7L503.5 23.2L502.6 10.9L500.2 7.2L496.7 4.4L495.5 7.2L484.3 3.6ZM624 42L622.8 45.1L622.2 41.7L624 42ZM434.4 0L432.3 2L436.2 8L434.8 13L436.2 17.9L432.4 28.2L440 38L445.3 38.9L445 36.4L448.7 35.4L448.5 50.6L446.7 50.2L446.2 47.9L439.6 49.9L436.3 44L434.4 43.9L433.1 39.7L424.1 37L418.9 28.6L413.7 33.8L405.3 32.5L398.1 29.5L397.7 24.3L388.3 27.4L386.1 26.6L387 23.2L382.8 20.5L380.9 22.3L365.7 22.5L362.7 24.9L361.9 20.3L363.6 19.2L363.6 14.7L357.6 3.6L358.2 0ZM297.3 235.6L288.9 228.5L283.7 219.4L278.5 199.5L278.7 190.8L274.2 178.7L274.8 159.5L262.1 138.7L251.3 115.2L246.6 110.4L243.9 103.8L243.4 95.6L247.2 94.1L252.7 95.2L259.5 91.8L263.1 92.5L268.8 97.4L319.7 97L324.6 101.9L341.1 102.6L346.4 104.7L385.3 98.1L394.6 99.3L397.1 101.9L393.6 101.8L389.2 105L386.7 103.8L378.3 110.1L374.7 104.3L348.3 108.1L348.5 152.3L337 152.8L337 233.6L332.3 235L327.2 240.5L323 239L316.4 239.8L307.7 237.2L307 231.1L304 228.5L301.9 229.2L300.2 234.4L297.3 235.6ZM337 186.9L344.7 195.9L346.8 204.3L344.1 208.9L345.1 213.9L356.2 213.6L366.2 205.2L371.7 193.8L376.6 193.5L381.9 197.9L390.3 200.4L399.3 199L404 186.8L410.1 185.4L415.1 180.8L418.3 171.6L425.5 167.8L431.7 160.2L438.7 158.4L440.1 155.5L447.2 154.3L454.8 157L464.1 156.7L465.7 157.7L468.4 170.7L473.6 182.8L473.7 198L472.5 202.4L467 199.3L463.8 201.5L460.2 207.6L460.1 212.9L464 217.8L468.4 219.3L473.4 219.4L473.7 212.9L483.9 213.4L480 230.4L478.2 235.1L466.6 245.4L451.7 270.5L444.3 276.4L434.5 288.3L418 301.4L410.9 304.6L403.1 304.3L401.3 305.9L402.1 308.3L393.6 307.6L392.2 310.7L378.6 307.6L376 309.4L366.6 307.8L361.9 309L357.6 313.1L347.6 312.8L346.8 314.3L342.7 314.3L337.4 319.1L333.3 318.5L329.2 316.4L330 314.7L327.2 313.4L327.5 311.9L323.8 313L323.6 309.1L319.9 309.3L319.8 312.6L318.1 310L320 305.7L312.7 291.8L317.9 288.9L317.6 279.3L306.3 258.7L301.1 242.4L297.1 236.2L304 228.5L307 231.1L307.7 237.2L316.4 239.8L323 239L327.2 240.5L332.3 235L337 233.6L337 186.9ZM439.4 239.9L435.5 235.5L430 237.2L428.4 239.5L425.4 239.9L420.9 247.4L417.1 249.1L421.1 258.3L425.4 262.1L429.2 262.9L432.6 256.1L441.3 253.1L440.9 250.9L444.6 245.6L443.2 242.3L439.4 239.9ZM484.3 3.6L485 6.1L487.1 5.8L489.1 8.5L488.6 11.2L492.8 17.1L487.8 20.7L489.6 23.9L487.8 26.8L488 35.2L491.2 37.8L485.4 40.8L485.1 47.6L481.3 52.2L485.2 57.6L486.7 56.1L487.5 57.1L453.5 68.5L455.7 76.2L446.3 76.5L438.9 80.1L436.9 86.8L426.2 91.9L418.2 102.9L413.5 105.2L407.9 102.9L404.6 104.3L401.9 102.1L398 102.4L390.5 98.3L375.7 100L361.2 87L359.8 82.2L359.8 45.3L382.8 45.3L381.2 42.8L383.1 38.1L382.4 20.5L387 23.2L386 26.4L387.8 27.4L397.7 24.3L398.1 29.5L405.3 32.5L413.7 33.8L418.9 28.6L424.1 37L433.1 39.7L434.4 43.9L436.3 44L439.6 49.9L446.2 47.9L448.4 50.6L448.7 35.4L445 36.4L445.3 38.9L440 38L434 32.1L432.3 28L436.2 17.9L434.8 13L436.2 8L432.3 2L434.4 0L474.2 0L484.3 3.6ZM382.4 20.5L383.1 38.1L381.2 42.8L382.8 45.3L359.8 45.3L359.8 82.5L361.7 87.6L375.7 100L346.4 104.7L341.1 102.6L324.6 101.9L319.7 97L268.8 97.4L263.1 92.5L259.5 91.8L252.7 95.2L247.2 94.1L243.5 95.2L243.2 78.8L246.1 76L247.9 70.7L252.1 50.3L257 45.1L256.9 43.1L264.9 36.5L267.2 23.3L266.4 18.3L263.6 15.1L257.6 0L358.2 0L357.6 3.6L363.6 14.7L363.6 19.2L361.9 20.3L362.7 24.9L365.7 22.5L380.9 22.3L382.4 20.5ZM243.1 87.9L242.8 86.5L243.1 87.9ZM397.1 101.9L397 104.3L404.8 115.4L407.3 122.8L419.2 129.5L419.9 134.4L424.8 134.6L424.5 141.4L428.2 147.3L440.1 150.3L440.1 153L443.6 155.1L431.7 160.2L425.5 167.8L418.3 171.6L415.1 180.8L410.1 185.4L404 186.8L399.3 199L390.3 200.4L381.9 197.9L376.6 193.5L371.7 193.8L368.1 202.6L360.7 210.5L357.5 211.2L356.2 213.6L345.1 213.9L344.1 208.9L346.8 204.3L344.7 195.9L337 186.9L337 152.8L348.5 152.3L348.3 108.1L374.7 104.3L378.3 110.1L386.7 103.8L389.3 104.9L392.1 102.4L397.1 101.9ZM397.1 101.9L401.9 102.1L404.6 104.3L407.9 102.9L413.5 105.2L417.1 103.8L426.2 91.9L437.5 86.3L438.9 80.1L446.3 76.5L455.5 76.2L455.6 80.5L465.4 80.8L472.8 85.6L484.8 88.6L483.2 91.6L485.4 96.5L484.3 104L485.6 108.5L483.7 110.8L484.1 113.6L481.5 115.8L483.5 117.3L482.5 121.9L485.5 125.8L485.2 128.8L479.3 135.7L477.6 142.2L478.9 144.4L465.7 157.7L460.6 156.2L454.8 157L448.3 154.4L443.7 155.1L440.1 153L440.1 150.3L428.2 147.3L424.5 141.4L424.8 134.6L419.9 134.4L419.2 129.5L407.3 122.8L404.8 115.4L397 104.3L397.1 101.9ZM475.1 213.3L474.6 202.7L472.7 200.2L473.6 182.8L468.4 170.7L465.6 157.9L478.9 144.4L477.6 142.2L479.3 135.7L485.2 128.8L485.5 125.8L482.5 121.9L483.5 117.3L481.5 115.8L484.1 113.6L483.7 110.8L485.6 108.5L484.3 104L485.4 96.5L483.2 91.6L484.8 88.6L472.8 85.6L465.4 80.8L455.6 80.5L453.5 68.5L487.5 57.1L492.5 64L500.4 61.5L502.4 64.1L503 71.9L499.2 79.2L501.4 83.8L509.3 90.4L508.7 93.7L511.2 93.9L511.1 88.8L509.4 86.9L512.2 82.2L516.8 81L518.2 67.4L508.9 53.5L502.7 49.1L500.6 35.9L503.6 28.7L514 29.1L517.3 26.8L521.6 30.2L531 28.6L536 30.4L540 28.2L541.3 25.3L547.6 26.8L562.4 21.2L570.6 16L572.3 18.4L570.3 19.2L571.9 20.2L568.8 25.7L570.7 31.7L570.2 39.5L572.2 42.5L569.5 44.6L571.6 45L572.2 57.3L570.9 58.9L573.3 60.2L572 63.6L573.9 61.8L574.4 65.3L572.1 67L573.6 68.7L570.8 70.3L572.6 71.5L571.4 74.5L562.3 84.1L563.2 85.6L554.5 92.2L549.6 92.7L544 95.8L543 94.7L543.5 95.8L532.8 101.2L530.5 104.5L528.8 102.9L530.4 104.9L523.9 113.7L522 112.6L522.3 115L520.7 113.9L517.6 115.7L509.4 124.8L506.5 126.7L502.8 123.3L505.4 126.2L504.1 135L509.3 140.1L508.1 141.9L511 148.4L512.5 158.6L512.9 154.2L513.8 156.6L514.2 155L513.5 161.3L514.8 164L511.8 173.5L511.7 177.1L513.9 175L513.6 178.8L509.1 185L488.8 193.2L483.7 196.8L479.2 202.4L483.4 206.3L484.6 203.6L483.9 213.4L475.1 213.3ZM513.3 147.2L512.9 150.1L513.3 147.2ZM473.2 202.1L474.6 202.7L475.1 210L473.4 219.4L464 217.8L460.1 212.9L459.9 208.6L463.8 201.5L467.3 199.4L473.2 202.1ZM439.4 239.9L443.2 242.3L444.6 245.6L440.9 250.9L441.3 253.1L432.6 256.1L429.2 262.9L425.4 262.1L421.1 258.3L417.1 249.1L420.9 247.4L425.4 239.9L428.4 239.5L430 237.2L435.5 235.5L439.4 239.9ZM613.2 133L615.7 128.2L614.5 125.7L615.8 122.2L613 117.4L609.4 98.9L615.2 88.8L615.4 82.9L620.2 83.1L624.7 79.6L625.1 81.9L626 80.2L628.6 81.1L629.2 78.2L633.8 78.9L634.7 77L636.8 80.3L638.4 80L636.5 78.4L636.9 76.2L643.9 71.1L645.3 72.5L644 75.2L647.1 73.8L645.1 71L649.5 64.9L649.3 70L653.5 63.6L655.8 65.9L656 64.4L653 64L652.4 62.2L653.4 59.6L655.2 59.7L654.9 58L656.2 60L654.7 52.3L656.6 51.3L659.2 54.6L659.6 51.7L661.9 51.4L661.3 49.5L664.7 49.8L666.7 43.1L664.1 38.7L666.6 39.2L670.4 33L671.4 35.9L669.8 36.2L673.3 38L674.7 43L675.7 42.3L677.9 45.7L681 65.8L684.1 73.9L680.5 80.4L677.5 73.7L674.5 75.2L675.1 81.6L676.9 83.4L675.4 89.5L676.8 90.4L674.1 91.2L672.1 95.8L672.2 106.2L645.9 189.2L628.1 197L623.5 197.5L619.8 194.3L614.5 193.2L610.6 190L606.6 181.7L606 174.5L607.6 170.8L603 163.1L601.7 153.2L604.7 144.3L608.2 143.3L613.2 133ZM678.1 89.8L678.9 88.7L676.6 93.5L678.1 89.8ZM659.6 49.5L658.4 49.9L658.9 47.6L659.6 49.5ZM638.7 3L635.4 3.3L638.7 3ZM607.9 37.2L606.2 36.4L607.9 37.2ZM616.3 36.3L616.1 38L612.7 35.5L615.6 34.4L616.3 36.3ZM604.2 31.5L603.9 32.8L601.4 30.7L602.1 26.4L603.4 26.6L604.2 31.5Z"/>
<g class="mm-pin"><circle cx="360" cy="190" r="17" class="mm-halo"/><circle cx="360" cy="190" r="5.5" class="mm-dot"/></g>
</svg>